<svg version="1.0" height="331" width="816" xmlns="http://www.w3.org/2000/svg"><path d="M15.75 330.5c-.55-.2-2-.7-3.25-1.05-3.6-1-6.65-2.7-8.9-4.95-2.9-2.95-3.6-4.55-3.6-8.6 0-7.4 4.65-12.45 12.2-13.2 1.7-.15 6.4.05 10.55.5 12.35 1.3 20.1-.15 27.8-5.3 7.55-5 13.6-14.1 17.7-26.65 1-3.15 2.95-11.4 3.85-16.25 1.6-9.25 2.2-15.9 3.9-43.75.45-7.5.8-13.5 2-33 .3-4.4.75-11.6 1-16s.7-11.6 1-16c1.2-19.5 1.55-25.5 2-33 .25-4.4.7-11.7 1-16.25.5-7.75.8-12.65 2-32.6.45-7.7.95-15.45 2-32.65 1.3-21.3 1.35-21.05-1.3-24.6-1.85-2.5-3.8-3.2-9.85-3.5-5.9-.35-7.3-.9-6.35-2.7l.55-.95h205.9l.3 1c.65 2.05-.35 2.35-8.4 2.6-8.45.25-9.9.65-11.95 3.5l-1.15 1.65-.15 156.65c-.05 108 .05 156.95.4 157.65l.55.95h9.75c5.8 0 10.15.2 10.75.5.6.35.95 1.05.95 2s-.35 1.65-.95 2c-.65.3-12.35.5-34.5.5h-33.5l-.75-.8c-1.05-1.05-1-2.35.1-3.35.8-.7 2.2-.85 9.45-.85h8.5l.8-.9.85-.95V166.2l-.05-155.95-.85-1.7c-.45-.95-1.7-2.4-2.75-3.25l-1.95-1.55H99.25l-1.85.9c-4 1.9-5.15 5.25-5.65 16.35-.15 3.45-.45 9.75-.75 14-.45 7.8-1.05 17.35-2 32.9-.3 4.6-.75 11.95-1 16.35-.3 4.4-.75 11.6-1 16s-.7 11.7-1 16.25c-.3 4.55-.75 11.85-1 16.25-.45 7.5-.8 13.5-2 33-.3 4.4-.75 11.6-1 16s-.7 11.7-1 16.25c-.3 4.55-.75 11.85-1 16.25-1.25 20.8-1.7 26.7-2.95 37.5-.65 5.55-.8 6.4-2.55 16-2.25 12.5-7.1 27.6-11.45 35.75-4.15 7.75-6.55 11.1-11.55 16-6.05 5.95-9.8 8.05-19.8 11.05-1.9.55-14.55.55-15.95-.05zm320.25-.1c-.95-.25-2.65-.7-3.75-1-12.45-3.25-22.2-11.3-27.95-23.1-3.15-6.45-3.9-8.95-5.8-18.7-.65-3.45-.65-20.45 0-23.5.3-1.3.75-3.45 1.05-4.85 1.25-5.9 3.9-12.05 7.4-17.2 2-2.85 8.1-9.05 10.8-10.9 7.85-5.35 17.6-8.15 28.25-8.15 10.35 0 16.95 1.9 24.75 7.15 8.2 5.55 13.45 13.85 15.55 24.8 1 5.25.9 6.4-.55 7.8l-1.2 1.25h-73.4l-.3 6c-.7 12.3.45 24.2 3.2 33.5 3.2 10.7 9 18.5 16.7 22.3 5.15 2.55 8.65 3.3 15 3.3s9.8-.75 15.15-3.4c6.4-3.1 12.4-10.15 14.25-16.65.3-1 .6-4.95.7-8.8.2-7.4.55-8.8 2.5-9.7 2.95-1.35 6.6.15 7.9 3.25 2.5 6.05-.95 16.75-7.6 23.3-3.3 3.25-7.75 6.9-8.4 6.9-.2 0-.95.4-1.65.9-.75.5-2.6 1.4-4.1 2.05-3.8 1.6-4.4 1.85-7 2.55-1.25.3-2.95.8-3.8 1.05-1.95.6-15.4.5-17.7-.15zm37.4-69c.75-.75.8-9.05.05-12.3-1.5-6.85-2.65-9.8-5.15-13.6-3.1-4.65-8.05-8.2-14.05-10.05-1.15-.35-4.65-.6-8.25-.55-5.05 0-6.9.25-9.5 1.1-6.85 2.3-11.7 5.75-15.75 11.1-2.6 3.45-6.1 10.4-7 13.9-.15.7-.6 2.4-.95 3.75-.4 1.4-.85 3.55-1 4.9l-.35 2.35h30.65c23.2 0 30.85-.15 31.3-.6zM766 330.5c-.4-.25-1.3-.5-1.95-.5-1.3 0-4.15-.8-5.65-1.55-.5-.25-1.1-.45-1.4-.45-1 0-5.3-2.25-8.75-4.55C734.3 314.15 727 297.7 727 275.5c0-19.7 6.25-33.95 19.25-43.8 2.6-1.95 9.25-5.25 12.85-6.4 10.15-3.15 22.05-3.15 31.15-.05 14.75 5 24.45 17.65 25.6 33.25l.2 3.25-1.15 1.15-1.2 1.1-36.75.1-36.7.15-.15 10.75c-.35 23.15 3.95 37.65 13.85 46.6 5.85 5.3 12.05 7.5 21.1 7.5 5.7.05 6.8-.15 12.45-2.25 6.1-2.25 12.15-7.75 14.85-13.45 2.5-5.25 2.8-6.6 2.75-13.85-.05-7.5.1-8 2.95-9.05 2.4-.85 4.3-.3 6.3 1.8l1.65 1.75v4.35c0 3.4-.3 5.1-1.25 7.85C810.85 317 800 325.9 786.5 329.5c-1.25.3-2.95.8-3.8 1.05-2 .6-15.75.55-16.7-.05zm36.85-69.1c.55-.9.3-10.15-.4-13.15-2.85-12.35-8.35-19.25-17.65-22.3-4.25-1.35-13.4-1.5-17.9-.3-10.45 2.85-18.45 10.55-22.75 21.85-1.4 3.7-2.95 9.5-3.35 12.65l-.25 1.85h30.95c24.2 0 31.05-.15 31.35-.6zm-362.35 68c-4.85-1-8.05-2-11.35-3.45-1.2-.55-2.25-.95-2.4-.95-.55 0-5.9-3.7-8.65-5.95-13.7-11.4-19.75-37.4-13.85-59.8.8-3.2.8-3.2 3.2-8.4 6.35-13.9 18.45-23.15 35.7-27.3 3.05-.7 16.65-.7 20.55 0 8.75 1.65 16.1 4.95 20.6 9.2 1.2 1.15 4.35 5.55 4.8 6.75 1.95 4.95 2.35 9.4 1.2 13.25-1.9 6.2-8.3 8-11.35 3.1-1.05-1.7-1.05-2.4.25-7 1.35-4.9 1.05-7.85-1.35-12.85-2.2-4.55-7.9-8.7-14.6-10.55-3.4-.95-16.6-.95-20 0-11.8 3.25-19.95 11.7-24.5 25.3-4.55 13.5-4.85 34.65-.8 51.5 2.6 11 8.95 19.4 17.7 23.45 5.6 2.55 14.15 3.65 20.6 2.6 8.1-1.3 12.25-3.25 17-8.05 3.9-3.95 6.35-8.85 7-14 .25-2.2.05-4-1.05-10.55-.55-2.95 2.25-6.2 5.3-6.2 3.85 0 6.5 3.7 6.5 9.05 0 3.9-.65 6.25-2.9 10.9-4.15 8.4-14.2 16.2-24.6 19.05-1.25.35-2.9.8-3.7 1.05-1.9.6-16.4.45-19.3-.15zm212.5-.2c-7.2-1.4-12-3.3-17.4-6.85-11.25-7.3-18.1-18.75-21.05-35.15-.8-4.45-.7-17.6.15-20.8 1.8-6.5 2.95-9.4 5.45-13.1 1.3-2.05 2.1-3.95 2.45-6 1.7-9.7 10.2-17.6 23.45-21.7 6.8-2.15 9.95-2.6 17.55-2.6 8.5 0 12.6.75 20.1 3.65 4.7 1.8 11.6 6.25 15 9.65 4.35 4.4 9.1 12.25 10.75 17.7.35 1.25.85 2.8 1.05 3.5 1.35 4.15 1.75 8.45 1.75 18 0 9.8-.2 12.05-1.85 18.25-1.15 4.45-1.75 6-4.4 11.25-5.8 11.7-15.65 19.8-28 23.1-7.3 1.95-18.4 2.45-25 1.1zm19.25-1.95c12.35-2.95 21.6-13.7 25.15-29.25 2.1-9.1 2.95-21.1 2.15-30.1-1.55-17.2-5.4-26.95-13.7-34.75-6.3-5.9-13-8.25-23.1-8.25-8.6.05-13.65 1.6-19.5 6-5.25 4-8.65 10.7-8.1 16.15.15 1.45.45 4.15.6 5.95l.35 3.25-1.7 1.9c-2.15 2.45-4.5 2.9-7.4 1.4l-2-1.05v1.25c0 .65.2 2.3.5 3.6.25 1.3.7 7.65 1 14.1.75 16.3 2.05 23.15 6.1 31.55 4.25 8.8 11.1 15.15 18.9 17.45.95.3 2.45.75 3.25 1 2.35.75 14.1.6 17.5-.2zm-171.25 1c0-.6.8-.75 4.4-.75 2.4 0 4.85-.15 5.5-.3l1.1-.3-.1-49.85-.15-49.8-5.25-.25-5.25-.25-.15-.85-.15-.9h33.6l-.15.9-.15.85-5.15.15-5.1.15.1 22.35.15 22.35h55v-44.5L574 227c-4.2-.2-5.25-.4-5.25-1v-.75l16.65-.15 16.6-.1v1.95l-5.1.15-5.15.15-.15 49.45c-.05 36.1.05 49.6.45 50.1s1.9.7 5.25.7c3.85 0 4.7.15 4.7.75v.75h-16.8c-13.2 0-16.75-.15-16.6-.6.15-.45 1.75-.7 5-.8 3.25-.1 5-.35 5.35-.8.4-.45.5-8.25.45-26.6l-.15-25.95-27.6-.15L524 274v53l1.15.25c.6.15 2.95.3 5.25.35 2.25.1 4.15.4 4.25.65.05.3-5.85.55-16.75.65l-16.9.1v-.75z" fill="#5a8a1c"/><path d="M343.5 329.25c0-.15.1-.25.25-.25s.25.1.25.25-.1.25-.25.25-.25-.1-.25-.25zm7 0c0-.15.1-.25.25-.25s.25.1.25.25-.1.25-.25.25-.25-.1-.25-.25zm91.5-.5c0-.85.4-.9 3.15-.45 2.65.45 2.3 1.2-.65 1.2-1.9 0-2.5-.2-2.5-.75zm13.5.25c-.55-.35-.2-.5 1.25-.5 1.1 0 2.35.25 2.75.5.55.35.2.5-1.25.5-1.1 0-2.35-.25-2.75-.5zm201.5 0l-.7-.45.75-.3c1.45-.55 9.6-.05 9.85.65.25.75-8.7.85-9.9.1zm115.5.25c0-.15.1-.25.25-.25s.25.1.25.25-.1.25-.25.25-.25-.1-.25-.25zm7 0c0-.15.1-.25.25-.25s.25.1.25.25-.1.25-.25.25-.25-.1-.25-.25zm-341.45-1.05c0-.55.15-.7.3-.3.15.35.1.8-.05.95-.15.2-.3-.1-.25-.65zm163.5 0c0-.55.15-.7.3-.3.15.35.1.8-.05.95-.15.2-.3-.1-.25-.65zm-138.9-.05a.6.6 0 01.7 0c.15.2 0 .35-.35.35s-.5-.15-.35-.35zm204.85.1c0-.15.1-.25.25-.25s.25.1.25.25-.1.25-.25.25-.25-.1-.25-.25zm-203.5-1.5c0-.15.1-.25.25-.25s.25.1.25.25-.1.25-.25.25-.25-.1-.25-.25zm-257.5-1c0-.15.1-.25.25-.25s.25.1.25.25-.1.25-.25.25-.25-.1-.25-.25zm259.75-.25c.15-.25.4-.5.55-.5.15 0 .1.25-.05.5-.15.3-.4.5-.55.5-.15 0-.1-.2.05-.5zm-258.75-.75c0-.15.1-.25.25-.25s.25.1.25.25-.1.25-.25.25-.25-.1-.25-.25zm260 0c0-.15.1-.25.25-.25s.25.1.25.25-.1.25-.25.25-.25-.1-.25-.25zm6.5-1c0-.15.1-.25.25-.25s.25.1.25.25-.1.25-.25.25-.25-.1-.25-.25zm-149-1.5c0-.15.1-.25.25-.25s.25.1.25.25-.1.25-.25.25-.25-.1-.25-.25zm53-4.5c0-.15.1-.25.25-.25s.25.1.25.25-.1.25-.25.25-.25-.1-.25-.25zm-324.5-22c0-.15.1-.25.25-.25s.25.1.25.25-.1.25-.25.25-.25-.1-.25-.25zM312 263c-.5-.3 9.65-.5 29.15-.5 19.8 0 29.8.15 29.6.5-.4.65-57.7.65-58.75 0zm429 0c-.5-.3 9.65-.5 29.15-.5 19.8 0 29.8.15 29.6.5-.4.65-57.7.65-58.75 0zm-369-.75c0-.15.1-.25.25-.25s.25.1.25.25-.1.25-.25.25-.25-.1-.25-.25zm-63.5-22.5c0-.15.1-.25.25-.25s.25.1.25.25-.1.25-.25.25-.25-.1-.25-.25zm106 0c0-.15.1-.25.25-.25s.25.1.25.25-.1.25-.25.25-.25-.1-.25-.25zm-105-1c0-.15.1-.25.25-.25s.25.1.25.25-.1.25-.25.25-.25-.1-.25-.25zm106 0c0-.15.1-.25.25-.25s.25.1.25.25-.1.25-.25.25-.25-.1-.25-.25zm323 0c0-.15.1-.25.25-.25s.25.1.25.25-.1.25-.25.25-.25-.1-.25-.25zm-428-1c0-.15.1-.25.25-.25s.25.1.25.25-.1.25-.25.25-.25-.1-.25-.25zm106 0c0-.15.1-.25.25-.25s.25.1.25.25-.1.25-.25.25-.25-.1-.25-.25zm323 0c0-.15.1-.25.25-.25s.25.1.25.25-.1.25-.25.25-.25-.1-.25-.25zm-428-1c0-.15.1-.25.25-.25s.25.1.25.25-.1.25-.25.25-.25-.1-.25-.25zm106 0c0-.15.1-.25.25-.25s.25.1.25.25-.1.25-.25.25-.25-.1-.25-.25zm210 0c0-.15.1-.25.25-.25s.25.1.25.25-.1.25-.25.25-.25-.1-.25-.25zm113 0c0-.15.1-.25.25-.25s.25.1.25.25-.1.25-.25.25-.25-.1-.25-.25zm-428-1c0-.15.1-.25.25-.25s.25.1.25.25-.1.25-.25.25-.25-.1-.25-.25zm106 0c0-.15.1-.25.25-.25s.25.1.25.25-.1.25-.25.25-.25-.1-.25-.25zm210 0c0-.15.1-.25.25-.25s.25.1.25.25-.1.25-.25.25-.25-.1-.25-.25zm113 0c0-.15.1-.25.25-.25s.25.1.25.25-.1.25-.25.25-.25-.1-.25-.25zm-428-1c0-.15.1-.25.25-.25s.25.1.25.25-.1.25-.25.25-.25-.1-.25-.25zm106 0c0-.15.1-.25.25-.25s.25.1.25.25-.1.25-.25.25-.25-.1-.25-.25zm210 0c0-.15.1-.25.25-.25s.25.1.25.25-.1.25-.25.25-.25-.1-.25-.25zm113 0c0-.15.1-.25.25-.25s.25.1.25.25-.1.25-.25.25-.25-.1-.25-.25zm-428-1c0-.15.1-.25.25-.25s.25.1.25.25-.1.25-.25.25-.25-.1-.25-.25zm316 0c0-.15.1-.25.25-.25s.25.1.25.25-.1.25-.25.25-.25-.1-.25-.25zm113 0c0-.15.1-.25.25-.25s.25.1.25.25-.1.25-.25.25-.25-.1-.25-.25zM501 226c0-.3 2-.5 5-.5s5 .2 5 .5-2 .5-5 .5-5-.2-5-.5zm23.3-.3l-.3-.85 2.3.35c1.3.15 3.65.3 5.25.3 1.65 0 2.95.2 2.95.5s-2 .5-4.95.5c-4.1 0-5-.15-5.25-.8zm44.2.3c0-.3 1.9-.5 4.75-.5s4.75.2 4.75.5-1.9.5-4.75.5-4.75-.2-4.75-.5zm24 0c0-.3 1.9-.5 4.75-.5s4.75.2 4.75.5-1.9.5-4.75.5-4.75-.2-4.75-.5zm-1.5-.75c0-.15.1-.25.25-.25s.25.1.25.25-.1.25-.25.25-.25-.1-.25-.25zm-250.3-1.1l-.55-.9h1.35c1.2 0 1.35.15.95.9-.25.45-.65.85-.85.85-.2 0-.6-.4-.9-.85zm2.8.6c0-.15.1-.25.25-.25s.25.1.25.25-.1.25-.25.25-.25-.1-.25-.25zm8 0c0-.15.1-.25.25-.25s.25.1.25.25-.1.25-.25.25-.25-.1-.25-.25zm93.3-.5c-.2-.6.15-.75 1.7-.75 2 0 2.65.65 1.2 1.2-1.35.5-2.6.35-2.9-.45zm13.85.4c-1.55-.15-2.15-.45-2.15-1 0-.5.3-.65.8-.45.45.15 1.3.3 1.95.3.6 0 1.25.35 1.45.75.15.4.2.7.15.65-.05-.05-1.05-.15-2.2-.25zm198.05-.5l-.55-.9h4.75l-.45.9c-.3.5-1.05.85-1.85.85-.75 0-1.6-.4-1.9-.85zm11.2.5c-.85-.2-1.65-1.65-.9-1.65.45 0 2 1.4 2 1.8 0 .1-.05.15-.1.15-.1-.05-.5-.15-1-.3zm101.8-.5l-.55-.9h1.35c1.2 0 1.35.15.95.9-.25.45-.65.85-.85.85-.2 0-.6-.4-.9-.85zm2.8.6c0-.15.1-.25.25-.25s.25.1.25.25-.1.25-.25.25-.25-.1-.25-.25zm4.85-.6c.3-.7 2.65-.9 2.65-.2 0 .25-.65.55-1.45.65-1.05.15-1.4.05-1.2-.45zm3.15.6c0-.15.1-.25.25-.25s.25.1.25.25-.1.25-.25.25-.25-.1-.25-.25zM349 224c0-.25.45-.5 1-.5s1 .25 1 .5c0 .3-.45.5-1 .5s-1-.2-1-.5zm100-.75c0-.15.1-.25.25-.25s.25.1.25.25-.1.25-.25.25-.25-.1-.25-.25z" fill="#468000"/></svg>